PathFileType  4	(X/Y/Z) C:\Users\antoi\Documents\MyRepositories\mobilecap\ResultsAnalysis
DataRate	CameraRate	NumFrames	NumMarkers	Units	OrigDataRate	OrigDataStartFrame	OrigNumFrames
100.0	100.0	4	51	mm	100.0	159	253
Frame#	Time	r_knee			r_shank_antsup			r_ankle			r_calc			r_5meta			r_toe			L_knee			L_shank_antsup			L_ankle			L_calc			L_5meta			L_toe			r_sh2			r_sh3			r_sh4			L_sh2			L_sh3			r_thigh1			r_thigh2			r_thigh3			r_thigh4			r_thigh5			L_thigh1			L_thigh2			L_thigh3			L_thigh4			r.ASIS			r.PSIS			L.ASIS			L.PSIS			C7			R_Shoulder			L_Shoulder			R_Sternum			L_Sternum			R_humerus			R_elbow_med			R_elbow_lat			R_forearm			R_wrist_radius			R_wrist_ulna			L_humerus			L_elbow_med			L_elbow_lat			L_forearm			L_wrist_radius			L_wrist_ulna			R_HJC			L_HJC			R_HJC_reg			L_HJC_reg			
		X1	Y1	Z1	X2	Y2	Z2	X3	Y3	Z3	X4	Y4	Z4	X5	Y5	Z5	X6	Y6	Z6	X7	Y7	Z7	X8	Y8	Z8	X9	Y9	Z9	X10	Y10	Z10	X11	Y11	Z11	X12	Y12	Z12	X13	Y13	Z13	X14	Y14	Z14	X15	Y15	Z15	X16	Y16	Z16	X17	Y17	Z17	X18	Y18	Z18	X19	Y19	Z19	X20	Y20	Z20	X21	Y21	Z21	X22	Y22	Z22	X23	Y23	Z23	X24	Y24	Z24	X25	Y25	Z25	X26	Y26	Z26	X27	Y27	Z27	X28	Y28	Z28	X29	Y29	Z29	X30	Y30	Z30	X31	Y31	Z31	X32	Y32	Z32	X33	Y33	Z33	X34	Y34	Z34	X35	Y35	Z35	X36	Y36	Z36	X37	Y37	Z37	X38	Y38	Z38	X39	Y39	Z39	X40	Y40	Z40	X41	Y41	Z41	X42	Y42	Z42	X43	Y43	Z43	X44	Y44	Z44	X45	Y45	Z45	X46	Y46	Z46	X47	Y47	Z47	X48	Y48	Z48	X49	Y49	Z49	X50	Y50	Z50	X51	Y51	Z51	

159	1.58000000	-57.02621	390.77047	-437.16800	-65.94776	326.16918	-412.71296	-250.94079	94.82803	-440.43829	-327.81325	61.53150	-473.85810	-159.21745	44.90672	-403.79568	-113.42648	59.92801	-460.30411	-78.04312	368.22062	-822.79748	-66.98605	294.29144	-823.53694	-286.00266	95.48512	-772.30705	-363.39354	65.14901	-724.52580	-205.56606	40.88536	-804.57000	-151.20382	58.02576	-750.79934	-124.07761	228.78787	-409.54985	-128.82328	363.72195	-426.85410	-195.51562	267.78412	-425.26920	-139.15859	343.09181	-847.10891	-200.37647	238.05973	-832.32701	-333.75655	481.90446	-470.98065	-221.88743	476.03821	-461.09624	-204.97274	434.34125	-411.93020	-343.88816	403.26078	-391.69706	-230.25466	383.44487	-404.46638	-337.68470	471.45783	-780.91427	-205.69046	462.46464	-795.75994	-361.73177	359.88607	-811.68530	-219.25207	358.31560	-826.85168	-336.04682	472.51575	-478.55472	-516.45206	513.03879	-542.69440	-353.08983	472.38481	-732.80117	-524.89342	510.79099	-651.76194	-152.41742	832.23859	-624.43154	-95.66652	785.54357	-508.83775	-92.60656	782.87552	-751.17076	-87.75912	692.15850	-601.35267	-83.06043	692.54888	-643.54900	-0.44692	669.78860	-355.17291	56.22411	556.89471	-362.37639	43.35727	615.26996	-306.60140	74.10940	693.09869	-384.93979	103.81322	757.47555	-469.80233	146.37556	752.96128	-457.23644	-24.27602	723.88407	-813.89679	90.06574	541.84912	-847.64328	85.54822	580.49113	-910.91887	104.76805	674.38681	-850.54583	124.00583	750.36843	-759.54684	160.37695	749.79103	-768.94643	-411.96530	406.10054	-502.52453	-419.49436	407.95996	-702.65906	-409.42534	401.89995	-507.50952	-422.40200	398.44347	-675.17439	
160	1.59000000	-54.15366	389.25124	-437.99432	-63.85471	324.95258	-413.61033	-250.62288	94.97156	-441.26392	-327.48599	61.95039	-474.08425	-159.19535	44.94801	-403.89929	-113.31253	59.76799	-460.38565	-75.59493	366.98047	-822.73712	-65.24060	292.88012	-823.80826	-285.92245	95.55101	-772.36880	-363.26455	65.49144	-724.55116	-205.55485	40.81787	-804.62568	-151.16707	57.91906	-750.86317	-122.97899	228.06796	-410.39426	-126.49268	362.92227	-427.94391	-194.03745	267.68468	-426.57721	-137.02397	342.41218	-847.30149	-199.10668	238.02043	-832.92497	-330.42785	482.05655	-470.60082	-218.56085	475.68494	-460.72094	-201.59231	433.52717	-412.10416	-340.61463	403.33329	-392.07677	-227.34423	382.87429	-404.88844	-334.29944	472.45458	-780.13507	-202.40646	462.40220	-795.61977	-359.35836	361.27009	-811.44745	-217.01236	358.27879	-826.39233	-338.22754	471.06865	-480.60777	-513.23137	514.79510	-542.17964	-349.59925	473.42591	-731.33946	-521.74894	512.60303	-651.09270	-149.41078	834.18645	-624.61562	-92.61367	788.52242	-509.43193	-88.92128	784.73794	-750.61057	-84.39427	694.51276	-600.64302	-79.59178	694.70000	-642.88069	6.89754	675.76819	-357.12360	65.92210	564.06454	-363.59602	51.86634	622.44574	-308.24361	79.87028	700.04399	-387.64613	107.20662	764.16096	-473.39459	149.98678	760.67436	-461.07696	-18.90806	727.51891	-811.39881	99.98018	547.15631	-843.10321	95.91622	586.34417	-905.81905	110.95811	680.96391	-845.93897	126.77166	758.19613	-755.21425	163.27588	758.90815	-764.62752	-412.13985	405.63197	-503.06995	-417.91894	409.57125	-703.23144	-409.77087	404.38536	-509.01851	-422.68551	401.05985	-674.16788	
161	1.60000000	-51.46221	387.83036	-438.86378	-62.15173	323.77381	-414.60678	-250.50793	95.21634	-441.83954	-327.26277	62.31971	-474.51275	-159.12319	45.11056	-404.03160	-113.21189	59.66694	-460.43758	-73.48884	366.12929	-822.92831	-63.77985	291.78309	-823.97543	-285.73620	95.74320	-772.41243	-363.08589	65.98986	-724.63399	-205.52354	40.79412	-804.64501	-151.08685	57.79271	-750.94296	-122.09396	227.53181	-411.31658	-124.33572	362.33732	-429.06347	-192.78633	267.87280	-427.99522	-135.14401	342.05388	-847.29584	-198.05108	238.27952	-833.13854	-327.18474	483.33959	-469.85849	-215.33252	475.86902	-460.34570	-198.53130	433.13400	-412.10895	-338.07067	404.09936	-392.05532	-224.85070	382.61163	-405.50577	-331.08302	474.17386	-779.59384	-199.19440	462.58017	-795.53919	-357.26217	363.25629	-811.01933	-215.04043	358.64567	-826.01727	-337.48003	471.59200	-481.53356	-510.15986	517.86637	-541.84607	-346.08786	475.50198	-730.09540	-518.76899	515.80440	-650.57541	-144.21250	838.64323	-625.15870	-89.60695	793.54317	-509.85406	-85.58181	788.04744	-750.14327	-81.19881	698.32475	-599.86220	-76.71018	697.99007	-642.55710	13.69232	683.62448	-358.84146	74.67022	572.71495	-364.23287	59.94010	631.94150	-309.11004	85.32577	708.58146	-390.40414	110.65714	772.31540	-476.81644	153.60193	769.94551	-464.71163	-13.75624	732.64799	-808.57849	109.64362	554.38745	-838.47160	105.92270	594.08583	-900.68591	117.10125	689.15165	-841.18957	129.81301	767.44135	-750.89084	166.46862	769.42010	-760.70430	-411.01362	407.06785	-503.19078	-415.81924	412.23566	-703.36400	-408.49073	407.41970	-509.60320	-421.44560	404.31610	-673.22038	
162	1.61000000	-48.94119	386.56936	-439.73918	-60.51820	322.79807	-415.43461	-250.45608	95.63919	-442.06505	-327.08634	62.62984	-474.97583	-159.05534	45.27578	-404.19472	-113.12214	59.60091	-460.47536	-71.69799	365.52670	-823.15893	-62.47436	290.91345	-823.96924	-285.45285	96.10577	-772.45731	-362.86914	66.55010	-724.60862	-205.50040	40.78722	-804.63805	-150.93238	57.63935	-751.02381	-121.29366	227.19680	-412.01943	-122.19453	361.98846	-430.14410	-191.53601	268.13337	-429.26326	-133.51651	341.95439	-847.04282	-197.32612	238.72264	-832.99729	-323.80230	485.45584	-469.33509	-212.00081	476.44338	-460.21377	-195.75799	433.25883	-412.19664	-335.99343	405.71915	-391.94661	-222.63327	382.84939	-406.18332	-328.08020	476.69357	-779.65404	-196.23913	463.28061	-795.46979	-355.47001	365.85014	-810.26579	-213.32895	359.60475	-825.87607	-334.30044	475.62324	-479.40105	-507.22889	522.16605	-541.46775	-342.78712	478.58005	-729.50288	-515.86525	520.31571	-650.06029	-139.81671	844.25797	-625.76673	-86.78626	799.64340	-510.54740	-82.59942	792.75278	-749.53664	-78.20602	703.57182	-599.18808	-73.96787	702.72945	-642.16389	19.83973	693.13436	-360.17216	82.17589	582.62258	-364.41512	67.42441	643.39660	-309.32347	90.49820	718.72588	-392.99832	114.12128	781.95647	-479.71261	157.19801	780.57321	-468.01216	-9.04565	739.18049	-805.49848	119.07375	564.08811	-833.15519	115.50257	603.62529	-895.57856	123.12396	698.84565	-836.21539	133.23308	778.06578	-746.64948	169.94255	781.21958	-756.65349	-408.52839	411.32994	-501.94015	-412.84927	415.80476	-702.13190	-405.46571	410.45116	-507.81284	-418.55873	407.64866	-672.44298	
